<?xml version="1.0" encoding="UTF-8"?>
<svg id="a" data-name="Layer 1" xmlns="http://www.w3.org/2000/svg" xmlns:xlink="http://www.w3.org/1999/xlink" viewBox="0 0 1366 439.5">
  <defs>
    <style>
      .c {
        fill: #2b292a;
      }

      .c, .d, .e, .f, .g, .h, .i, .j, .k, .l, .m, .n, .o, .p, .q, .r, .s, .t, .u, .v {
        stroke-width: 0px;
      }

      .d {
        fill: #1a1819;
      }

      .e {
        fill: #100e0f;
      }

      .f {
        fill: #127acc;
      }

      .g {
        fill: #4a4847;
      }

      .h {
        fill: #4c4949;
      }

      .i {
        fill: #090706;
      }

      .j {
        fill: #5b5958;
      }

      .k {
        fill: url(#b);
      }

      .l {
        fill: #070607;
      }

      .m {
        fill: none;
      }

      .n {
        fill: #1d1a1b;
      }

      .o {
        fill: #535150;
      }

      .p {
        fill: #3e3c3c;
      }

      .q {
        fill: #333132;
      }

      .r {
        fill: #222021;
      }

      .s {
        fill: #444242;
      }

      .t {
        fill: #3c3a3a;
      }

      .u {
        fill: #151414;
      }

      .v {
        fill: #525050;
      }
    </style>
    <radialGradient id="b" cx="1018" cy="101" fx="1018" fy="101" r="438.46" gradientUnits="userSpaceOnUse">
      <stop offset="0" stop-color="#28afbf"/>
      <stop offset="1" stop-color="#127acc"/>
    </radialGradient>
  </defs>
  <path class="k" d="m0,0v400c323.25,61.64,556.17,42.02,721,3,11.48-2.72,16.68-4.12,29-7,253.43-59.23,463.28-28.84,616,16V0H0Z"/>
  <path class="m" d="m1031.22,184.74c.37.83.69,1.69,1.09,2.51.86,1.15,1.72,2.3,2.58,3.45-.86-1.15-1.72-2.3-2.58-3.45-.39-.81-.72-1.67-1.09-2.51Z"/>
  <path class="m" d="m1113.23,250.09c-.2-.34-.38-.71-.56-1.08.18.37.36.74.56,1.08.07.05.14.1.21.14-.07-.05-.14-.1-.21-.14Z"/>
  <path class="m" d="m984.86,129.09s0,0,0,0c.92.47,1.85.94,2.77,1.42-.92-.47-1.85-.95-2.77-1.42Z"/>
  <polygon class="m" points="1165.7 311.24 1165.7 311.25 1165.7 311.24 1165.7 311.24"/>
  <path class="m" d="m960.96,141.18c2.26-1.27,4.52-2.54,6.79-3.82-2.26,1.27-4.52,2.54-6.79,3.82h0c-.9,2.14-1.81,4.29-2.71,6.43.9-2.14,1.81-4.29,2.71-6.43Z"/>
  <path class="m" d="m1148.55,290.52l-1.73-2.57h0s0,0,0,0c.58.86,1.16,1.71,1.73,2.57Z"/>
  <path class="m" d="m1133.02,271.62c.21.22.43.43.64.65-.21-.22-.43-.43-.64-.65-.57,0-1.15,0-1.72,0,.57,0,1.15,0,1.72,0Z"/>
  <path class="m" d="m1137.37,276.74h0s0,0-.01.01h.01Z"/>
  <path class="m" d="m1133.02,271.62c-.57-.58-1.13-1.17-1.7-1.75-1.46-2.27-2.91-4.55-4.37-6.82,1.46,2.27,2.91,4.55,4.37,6.82.57.58,1.13,1.17,1.7,1.75Z"/>
  <path class="m" d="m1122.69,258.71c-.28-.01-.55-.02-.83-.03-.83-.93-1.66-1.86-2.48-2.79.83.93,1.66,1.86,2.48,2.79.28,0,.56.02.83.03Z"/>
  <path class="m" d="m1098.52,330.17c-.22-.22-.3-.48-.23-.78,0,0,0,0,0,0-.16-.61-.32-1.21-.48-1.82,1.18,0,2.36,0,3.54,0-1.18,0-2.36,0-3.54,0-2.96-9.73-5.92-19.46-8.88-29.19-3.1-8.06-6.19-16.12-9.29-24.17-1.8-3.7-3.6-7.4-5.4-11.11-3.3-5.49-6.61-10.97-9.91-16.46-1.59-2.25-3.18-4.51-4.76-6.76-13.17-16.73-29.11-30.71-44.6-45.16-5.01-4.68-9.91-9.61-14.05-15.05-2.65-3.49-3.82-8.1-5.65-12.21-1.38-6.37.39-12.18,3.39-17.66,8.75-16.01,20.48-29.49,34.91-40.64-1.74-.17-3.52-.65-5.2-.43-1.63.21-3.16,1.15-4.73,1.77,0-.27.01-.54.02-.82,0,.27-.01.54-.02.82-12,6.67-24,13.35-36,20.02-2.34,1.33-4.68,2.66-7.02,3.98-7.45,4.37-14.91,8.75-22.36,13.12-1.14.87-2.28,1.75-3.42,2.62-1.89,1.46-3.78,2.91-5.66,4.37-2.13,1.98-4.27,3.96-6.4,5.94-1.35,1.75-2.7,3.5-4.05,5.25-1.01,2.27-2.02,4.55-3.03,6.82-1.79,7.07-1.03,13.94,1.67,20.65.11.4.23.79.34,1.19,6.51,10.36,13.16,20.64,19.49,31.1,5.97,9.87,9.07,20.57,7.88,32.25-.28,3.46-.56,6.92-.84,10.38-2.82,8.61-5.64,17.21-8.46,25.82h0c-2.45,5.86-4.76,11.78-7.41,17.55-2.07,4.51-4.57,8.82-6.88,13.21-4.71,8.41-9.42,16.81-14.13,25.22-3.66,5.87-7.32,11.73-10.98,17.6,67.24-6.43,130.6-6.83,189.74-2.98-2.07-9.77-4.28-19.51-6.41-29.26-.39-1.72-.77-3.45-1.16-5.17Z"/>
  <path class="m" d="m1023.66,108.86c9.15-3.69,18.3-7.37,27.45-11.06-9.15,3.68-18.3,7.37-27.45,11.06-.68.2-1.38.36-2.06.54.69-.18,1.39-.34,2.07-.54h0Z"/>
  <path class="m" d="m854.97,362.01c.2.04.42.06.64.08-.22-.02-.44-.04-.64-.08-1.88,2.32-3.75,4.64-5.63,6.96,1.88-2.32,3.75-4.65,5.63-6.96Z"/>
  <path class="m" d="m842.47,376.92h0c.15-.11.31-.21.45-.33-.14.12-.3.22-.45.33Z"/>
  <path class="m" d="m910.06,255.26c-.87,5.45-1.73,10.9-2.6,16.35-.85,2.58-1.69,5.16-2.54,7.75.85-2.58,1.69-5.16,2.54-7.75.87-5.45,1.73-10.9,2.6-16.35Z"/>
  <path class="m" d="m954.69,144.47l-4.2,2.28c-1.17.66-2.33,1.32-3.5,1.99,1.17-.66,2.33-1.32,3.5-1.98,1.4-.76,2.8-1.52,4.2-2.28Z"/>
  <path class="m" d="m865.3,347.15c0,.08,0,.15,0,.23-3.45,4.88-6.89,9.75-10.34,14.63,3.45-4.88,6.89-9.75,10.34-14.63,1.93.14,3.85.3,5.78.45-1.93-.15-3.85-.31-5.78-.45,0-.08,0-.15,0-.23Z"/>
  <path class="m" d="m954.41,246.13c-.12.16-.23.33-.32.5.09-.17.2-.33.32-.5Z"/>
  <path class="m" d="m938.24,153.38l-.61.3s-.08.08-.11.12c.04-.04.08-.08.11-.12.2-.1.41-.2.61-.3Z"/>
  <path class="m" d="m942.8,151.12h0c-1.07,2.36-2.14,4.73-3.2,7.06,1.06-2.33,2.13-4.7,3.2-7.06Z"/>
  <path class="m" d="m904.91,279.35c-.03.28-.05.57-.05.85-.31.83-.62,1.67-.93,2.5.31-.83.62-1.67.93-2.5.02-.28.03-.57.05-.85Z"/>
  <path class="m" d="m1074.14,90.38c-5.32,1.71-10.31,3.32-15.3,4.93h0c4.99-1.61,9.98-3.21,15.3-4.93Z"/>
  <path class="m" d="m1134.74,275.91c.29.29.59.59.88.88.27.01.54.02.82.02,0,0,.03-.03.03-.03h0s-.03.03-.03.03c-.27,0-.54,0-.82-.02-.29-.29-.59-.59-.88-.88Z"/>
  <path class="m" d="m1141.62,283.69c.88,3.23,2.42,5.93,4.93,7.82-2.51-1.89-4.05-4.58-4.93-7.82-.57-.86-1.15-1.73-1.72-2.59-.83-.63-1.65-1.26-2.48-1.88.83.63,1.65,1.26,2.48,1.88.57.86,1.15,1.73,1.72,2.59Z"/>
  <path class="m" d="m1155.41,303.47c.29-.58.57-1.15.86-1.73-.29.58-.57,1.15-.86,1.73h0Z"/>
  <path class="m" d="m1152.86,295.68c.27.27.53.54.8.82-.27-.27-.53-.54-.8-.82-1.14-1.43-2.29-2.86-3.43-4.3-.29-.29-.58-.57-.87-.86.29.29.58.57.87.86,1.15,1.43,2.29,2.86,3.43,4.3Z"/>
  <path class="m" d="m1158.83,305.21h0s0,0,0,0c-1.14-.58-2.28-1.16-3.42-1.74,1.14.58,2.28,1.16,3.42,1.74Z"/>
  <path class="m" d="m1136.47,276.78h0c0,.29,0,.57,0,.86,0,.12,0,.23,0,.35,0-.12,0-.23,0-.35,0-.29,0-.57,0-.86Z"/>
  <path class="m" d="m1180.4,343.05c1.43,2.01,2.87,4.02,4.3,6.03-1.43-2.01-2.87-4.02-4.3-6.03h0c-2.73-4.88-5.47-9.75-8.2-14.63,2.72,4.88,5.46,9.75,8.2,14.62,0,0,0,.01,0,.01Z"/>
  <path class="m" d="m1126.35,268.28c-1.39-1.35-2.42-3.02-2.8-5.27-.21-.22-.43-.43-.64-.65l.64.65c.38,2.25,1.41,3.92,2.8,5.27Z"/>
  <path class="m" d="m1161.3,311.44c-.29-.9-.47-1.87-.75-2.77-.57-1.15-1.14-2.31-1.72-3.46.57,1.15,1.14,2.31,1.71,3.46.29.9.47,1.87.75,2.77Z"/>
  <path class="m" d="m1172.21,328.42c-.47-.84-.88-1.71-1.31-2.56-.57-.86-1.14-1.73-1.71-2.59.57.86,1.14,1.73,1.71,2.59.44.85.85,1.72,1.31,2.56Z"/>
  <path class="m" d="m1115.4,352.37c-.3.16-.61.35-.91.55.3-.2.61-.39.91-.55Z"/>
  <path class="m" d="m955.68,244.93c.09.18.17.35.26.53-.09-.18-.17-.35-.26-.53-.22.15-.41.3-.59.45.18-.16.37-.31.59-.45Z"/>
  <path class="m" d="m1135.61,275.06c-.29,0-.57,0-.86,0-3.79-.83-7.51-1.18-11.31-1.14,3.8-.04,7.52.31,11.31,1.14.29,0,.57,0,.86,0Z"/>
  <path class="m" d="m1153.7,298.29c0-.58.01-1.16.02-1.74,0,0,0,0,0,0,0,.58-.01,1.16-.02,1.74h0Z"/>
  <path class="m" d="m1120.13,259.55c-1.45-2.57-2.9-5.13-4.35-7.69h0c1.45,2.56,2.9,5.13,4.35,7.69.58-.29,1.15-.58,1.73-.87-.58.29-1.15.58-1.73.87Z"/>
  <path class="m" d="m1112.32,354.29h0c.51-.27,1.03-.62,1.54-.96-.51.34-1.03.69-1.54.96Z"/>
  <path class="m" d="m1134.74,275.91c.29,0,.58,0,.87,0-.29,0-.58,0-.87,0h0Z"/>
  <path class="m" d="m1126.89,268.77c.37.32.76.62,1.16.9-.4-.29-.79-.59-1.16-.9Z"/>
  <polygon class="f" points="835.17 380.1 835.1 380.03 835.1 380.03 835.17 380.1 835.17 380.1"/>
  <polygon class="i" points="1115.78 251.85 1115.78 251.85 1115.78 251.85 1115.78 251.85"/>
  <path class="i" d="m1031.22,184.74c.37.83.69,1.69,1.09,2.51.86,1.15,1.72,2.3,2.58,3.45.57.57,1.15,1.15,1.72,1.72,2.58,3.27,5.29,6.43,7.67,9.84,1.29,1.85,1.88,4.18,3.06,6.12.4.65,1.76,1.18,2.5,1.01.6-.14,1.12-1.37,1.35-2.21.58-2.11-1.27-5.86,2.31-5.78,1.85.04,3.67,3.21,5.42,5.05.55.57.83,1.39,1.68.95,1.63.11,3.48-.23,4.87.42,7.4,3.42,13.29,8.66,17.62,15.6,4.95,4.23,9.82,8.54,14.86,12.65,4.19,3.42,8.66,6.51,12.82,9.97.86.72,1.36,1.87,1.89,2.99.18.37.36.74.56,1.08.07.05.14.1.21.14.78.54,1.56,1.08,2.34,1.61,1.2,1.35,2.4,2.69,3.6,4.04.83.93,1.66,1.86,2.48,2.79.28,0,.55.02.83.03,1.42,1.44,2.84,2.89,4.26,4.33,1.46,2.27,2.91,4.55,4.37,6.82.57.58,1.13,1.17,1.7,1.75.21.22.43.43.64.65.64.65,1.29,1.3,1.93,1.95.59.84,1.18,1.69,1.77,2.53h0s0,0,0,0c1.15,1.15,2.3,2.31,3.45,3.46,2,2.58,4,5.17,6,7.75h0c.58.86,1.16,1.71,1.73,2.57.29.29.58.57.87.86,1.14,1.43,2.29,2.86,3.43,4.3.27.27.53.55.8.82.02.02.04.04.06.06h0s0,0,0,0h0c1.05.95,2.23,1.8,3.24,2.79.33.33.65.67.93,1.04,2.73,3.53,5.22,7.24,7.81,10.87h0s0,0,0,0h0c3.07,4.41,6.32,8.71,9.19,13.24,6.54,10.33,13.21,20.59,19.28,31.2,3.72,6.5,7.35,13.04,10.96,19.6,6.79,1.03,13.52,2.1,20.17,3.22-15.69-27.96-32.73-55.07-52.2-80.68-19.42-25.54-40.17-49.91-65.73-69.43-18.18-13.88-37.63-26.12-56.57-39-10.65-7.24-20.55-15.14-26.3-27.1,1.22,6.85.79,14.12,5.41,20.1.54.7.94,1.5,1.31,2.33Z"/>
  <path class="l" d="m841.21,371.63c.7-.92,1.41-1.82,2.14-2.71,7.82-9.45,16.33-18.37,23.57-28.23,9.25-12.6,17.69-25.82,26.14-38.99,3.21-5,5.43-10.62,8.23-15.9.62-1.17,1.75-2.07,2.64-3.09.31-.83.62-1.67.93-2.5,0-.29.02-.57.05-.85.85-2.58,1.69-5.16,2.54-7.75.87-5.45,1.73-10.9,2.6-16.35-.28-5.45-.55-10.89-.83-16.34-2.81,17.43-11.32,32.26-21.16,46.49-17.64,25.5-39.38,47.36-61.36,68.99-10.68,10.51-21.63,20.73-32.47,31.08,14.29-2.82,28.44-5.35,42.44-7.62,1.5-2.09,2.99-4.18,4.54-6.23Z"/>
  <path class="d" d="m1034.66,117.45c-1.37-.54-3.69-1.12-4.45-.42-6.15,5.68-12.47,11.28-17.87,17.64-6.82,8.03-11.85,17.33-15.84,27.11-.72,1.77-.84,3.78-1.24,5.68,1.83,4.11,3,8.73,5.65,12.21,4.14,5.44,9.03,10.37,14.05,15.05,15.49,14.45,31.43,28.43,44.6,45.16,2.02.87,3.97,2.01,6.07,2.53,2.3.57,4.76.84,7.13.73,3.46-.16,6.93-.64,10.34-1.28,1.7-.32,3.52-.99,4.87-2.04,2.59-2.01,5.31-2.41,7.91-.77,4.67,2.95,10.66,4.29,13.04,10.19,1.43.29,2.87.57,4.3.86-.2-.34-.38-.71-.56-1.08-.53-1.11-1.03-2.27-1.89-2.99-4.16-3.46-8.63-6.55-12.82-9.97-5.04-4.11-9.91-8.42-14.86-12.65-1.98-1.55-3.82-3.33-5.97-4.58-3.01-1.75-6.26-3.1-10.41-5.11.45,3.18.78,4.67.86,6.18.21,3.85-1.88,5.69-5.25,4.1-6.88-3.26-13.58-6.92-20.29-10.53-.77-.41-1.33-1.52-1.64-2.42-2.03-6.05-4.85-11.95-3.79-18.62-.57-.57-1.15-1.15-1.72-1.72-.86-1.15-1.72-2.3-2.58-3.45-.39-.81-.72-1.67-1.09-2.51-.37-.83-.77-1.64-1.31-2.33-4.63-5.98-4.19-13.25-5.41-20.1-1.82-5.7-2.58-11.67-.23-17.14,3.67-8.55,8.18-16.74,12.34-25.08-.63-.91-1.08-2.3-1.94-2.64Z"/>
  <path class="o" d="m1114.49,352.92c.3-.2.61-.39.91-.55.62-.33,1.23-.56,1.85-.56,5.4-.07,10.8.45,16.2.72,3.08.15,5.28-1.09,7.95-2.94,3.74-2.6,8.73-3.71,13.35-4.62,3.1-.61,6.5.48,9.75.36,3.51-.13,7-.75,10.48-1.24,1.82-.26,3.62-.69,5.43-1.05-2.73-4.87-5.47-9.74-8.2-14.62-.47-.84-.88-1.71-1.31-2.56-.57-.86-1.14-1.73-1.71-2.59-.29-.57-.59-1.14-.88-1.71-10.09-3.35-20.36.19-30.52-.81-1.02-.1-2.68.32-3.1,1.04-2.19,3.74-5.67,3.19-9.07,3.21-3.64.01-7.02.02-10.6,2.04-2.63,1.48-6.69.45-10.11.5-1.18.02-2.36.02-3.54.02s-2.36,0-3.54,0c.16.61.32,1.21.48,1.82,0,0,0,0,0,0h0c.08.26.15.52.23.78.39,1.72.77,3.45,1.16,5.17.78,1.07,1.92,2.03,2.26,3.22,1.13,3.87,2.18,7.79,2.87,11.75.16.9.41,1.6.73,2.14.32.55.72.94,1.17,1.21,1.5.93,3.61.61,5.6.63.51-.27,1.03-.62,1.54-.96.21-.14.42-.28.63-.41Z"/>
  <path class="g" d="m1115.01,327.05c3.58-2.02,6.96-2.03,10.6-2.04,3.41-.01,6.88.54,9.07-3.21.42-.73,2.08-1.15,3.1-1.04,10.16,1,20.44-2.55,30.52.81-2.13-2.86-4.37-5.64-6.32-8.61-.3-.46-.51-.97-.69-1.51-.29-.9-.47-1.87-.75-2.77-.57-1.15-1.14-2.31-1.71-3.46h0c-1.14-.58-2.28-1.16-3.42-1.74h0c-.52-.53-1.07-1.05-1.62-1.56-.55-.51-1.11-1.02-1.66-1.54-1.08-1.04-2.09-2.12-2.84-3.36-2.93-4.87-12.16-6.45-16.76-3.05-.65.48-1.53.69-2.34.87-10.04,2.21-20.06,4.5-30.14,6.46-1.89.37-4.07-.51-6.06-1.04-1.73-.46-3.37-1.24-5.06-1.87,2.96,9.73,5.92,19.46,8.88,29.19,1.18,0,2.36,0,3.54,0s2.36,0,3.54-.02c3.42-.05,7.48.98,10.11-.5Z"/>
  <path class="s" d="m929.97,321.65c-2.58-.58-5.4-.03-8.11-.14-1.25-.05-2.85-.06-3.65-.79-4.45-4.07-9.53-2.71-14.55-2.04-5.15.69-10.35,1.2-15.39,2.39-.6.14-1.17.37-1.74.66-.56.29-1.11.63-1.66,1-1.09.74-2.15,1.57-3.25,2.24-5.45,7.17-10.9,14.34-16.35,21.51,0,.22.02.44.02.66,0,.08,0,.15,0,.23,1.93.14,3.85.3,5.78.45,1.93.15,3.85.29,5.78.38,6.25.31,12.5.6,18.75.68,1.3.02,3.36-.55,3.79-1.45,1.48-3.12,4.03-2.64,6.55-2.65,1.86,0,3.73.14,5.57-.03,6.05-.55,11.66.09,15.81,5.22,4.71-8.41,9.42-16.81,14.13-25.22-3.06-3.81-7.64-2.25-11.5-3.11Z"/>
  <path class="t" d="m925.63,294.4c-2.7.05-5.4.53-8.08.41-5.36-.24-10.56,0-15.24,2.03-2.13.93-4.15,2.23-6.04,4.03-4.88,8.03-9.76,16.07-14.64,24.1,1.1-.67,2.17-1.51,3.25-2.24.54-.37,1.09-.71,1.66-1,.56-.29,1.14-.52,1.74-.66,5.03-1.2,10.24-1.7,15.39-2.39,5.01-.68,10.1-2.03,14.55,2.04.8.73,2.41.74,3.65.79,2.71.11,5.53-.43,8.11.14,3.86.86,8.44-.7,11.5,3.11,2.31-4.4,4.81-8.71,6.88-13.21,2.65-5.77,4.95-11.69,7.41-17.55-5.02.06-10.04.12-15.07.18-5.02.06-10.04.13-15.06.22Z"/>
  <path class="t" d="m884.88,322.74c-1.09.74-2.15,1.57-3.25,2.24,0,0,0,0,0,0,1.1-.67,2.17-1.51,3.25-2.24Z"/>
  <path class="t" d="m884.88,322.74c.54-.37,1.09-.71,1.66-1-.56.29-1.11.63-1.66,1Z"/>
  <path class="q" d="m896.27,300.88c1.88-1.8,3.91-3.1,6.04-4.03,4.68-2.04,9.88-2.27,15.24-2.03,2.68.12,5.38-.37,8.08-.41,5.02-.08,10.04-.15,15.06-.22,5.02-.06,10.04-.12,15.07-.18h0c2.82-8.61,5.64-17.21,8.46-25.82-1.41-2.89-2.95-5.72-4.2-8.67-1.47-3.47-2.76-7.03-3.98-10.6-.21-.62.31-1.48.49-2.23-.2-.41-.4-.81-.6-1.22-.09-.18-.17-.35-.26-.53-.22.15-.41.3-.59.45-.27.24-.49.49-.69.75-.12.16-.23.33-.32.5-.13.24-.25.49-.33.75-.6,1.94.28,4.11.7,5.98,1.63,7.4-1.53,13.16-8.92,14.59-7.37,1.42-14.82,2.47-22.23,3.68-.28.05-.69-.07-.84.08-4.31,4.32-8.56,3.01-12.89,0-.49-.34-1.4-.09-2.12-.11-.85,2.58-1.7,5.16-2.54,7.75-.02.28-.03.57-.05.85-.31.83-.62,1.67-.93,2.5-1.46,3.32-2.96,6.62-4.37,9.96-1.15,2.71-2.19,5.47-3.29,8.21Z"/>
  <path class="q" d="m902.31,296.85c-2.13.93-4.15,2.23-6.04,4.03,0,0,0,0,0,0,1.88-1.8,3.91-3.1,6.04-4.03Z"/>
  <path class="q" d="m940.7,294.19c5.02-.06,10.04-.12,15.07-.18h0c-5.02.06-10.04.12-15.07.18Z"/>
  <path class="v" d="m849.34,368.97c-1.88,2.32-3.77,4.63-5.69,6.91-.22.26-.46.49-.72.71-.14.12-.3.22-.45.33,15.09-2.37,30-4.43,44.73-6.2-1.56-.43-3.14-.81-4.72-.91-4.08-.26-8.26.38-11.26-3.61-.6-.8-2.65-.7-4.04-.71-3.56-.03-7.19.46-9.78-2.95-.14-.19-.4-.29-.72-.34-.21-.04-.44-.06-.68-.08-.13,0-.26-.02-.39-.03-.22-.02-.44-.04-.64-.08-1.88,2.32-3.75,4.64-5.63,6.96Z"/>
  <path class="h" d="m911.53,344.76c-1.84.17-3.71.02-5.57.03-2.52,0-5.07-.48-6.55,2.65-.43.9-2.49,1.47-3.79,1.45-6.25-.08-12.5-.37-18.75-.68-1.93-.1-3.86-.23-5.78-.38-1.93-.15-3.85-.31-5.78-.45-3.45,4.88-6.89,9.75-10.34,14.63.2.04.42.06.64.08.13,0,.26.02.39.03.24.02.47.04.68.08.31.06.57.16.72.34,2.6,3.41,6.22,2.92,9.78,2.95,1.38.01,3.43-.09,4.04.71,3,3.99,7.18,3.36,11.26,3.61,1.59.1,3.17.48,4.72.91,9.8-1.18,19.51-2.21,29.16-3.14,3.66-5.87,7.32-11.73,10.98-17.6-4.15-5.13-9.76-5.77-15.81-5.22Z"/>
  <path class="h" d="m856,362.12c.24.02.47.04.68.08-.21-.04-.44-.06-.68-.08Z"/>
  <path class="h" d="m855.61,362.09c.13,0,.26.02.39.03-.13,0-.26-.02-.39-.03Z"/>
  <path class="p" d="m1100.04,301.29c10.08-1.96,20.1-4.26,30.14-6.46.81-.18,1.7-.39,2.34-.87,4.6-3.4,13.83-1.82,16.76,3.05.75,1.24,1.76,2.32,2.84,3.36.54.52,1.1,1.03,1.66,1.54.55.51,1.1,1.03,1.62,1.56.29-.58.57-1.15.86-1.73-.86-1.15-1.71-2.3-2.57-3.45-.58-.85-1.16-1.71-1.74-2.56-.85-.87-1.7-1.74-2.55-2.61-1.07-.44-2.01-.98-2.85-1.61-2.51-1.89-4.05-4.58-4.93-7.82-.57-.86-1.15-1.73-1.72-2.59-.83-.63-1.65-1.26-2.48-1.88-.31-.24-.62-.47-.94-.71,0-.17,0-.35,0-.52,0-.12,0-.23,0-.35,0-.29,0-.57,0-.86h0s-.03.03-.03.03c-.27,0-.54,0-.82-.02-.29-.29-.59-.59-.88-.88h0c0-.28.01-.57.01-.85-3.79-.83-7.51-1.18-11.31-1.14-2.28.02-4.6.18-6.98.46-4.69.54-9.91-.12-14.89.66-2.66.42-5.47.22-8,1-5.02,1.54-9.48.25-13.93-1.83,3.1,8.06,6.19,16.12,9.29,24.17,1.68.64,3.33,1.41,5.06,1.87,1.99.53,4.17,1.41,6.06,1.04Z"/>
  <path class="p" d="m1153.79,301.91c-.55-.51-1.11-1.02-1.66-1.54.54.52,1.1,1.03,1.66,1.54Z"/>
  <path class="p" d="m1155.41,303.47h0c-.52-.53-1.07-1.05-1.62-1.56.55.51,1.1,1.03,1.62,1.56Z"/>
  <path class="u" d="m906.91,193.23c5.49-5.16,12.33-2.99,18.69-3.4,4.29-.28,5.38-1.6,5.32-6.05-.01-1.02.61-2.06,1.14-3.75,2.81,4.57-.18,10.63,5.28,13.24-2.7-6.71-3.45-13.57-1.67-20.65-2.2-1.81-5.27-3.19-6.4-5.52-1.89-3.91.19-7.01,4.87-9.13.59-.84,1.18-1.68,1.77-2.53.53-.55,1.07-1.09,1.6-1.64.04-.04.08-.08.11-.12l.61-.3c1.52-.76,3.04-1.51,4.56-2.27,0,0,0,0,0,0h0s0,0,0,0c1.4-.79,2.8-1.59,4.19-2.38,1.17-.66,2.33-1.32,3.5-1.99l4.2-2.28c.63-.34,1.26-.69,1.9-1.03,1.46-.75,2.91-1.51,4.37-2.26h0s0,0,0,0c2.26-1.27,4.52-2.54,6.79-3.82.58-.29,1.16-.58,1.74-.87-.58.29-1.16.58-1.74.87.58-.29,1.16-.58,1.74-.87.57-.28,1.14-.57,1.71-.85,4.56-2.19,9.11-4.37,13.67-6.56,0,0,0,0,0,0,0,0,0,0,0,0,3.64-2.14,7.22-4.39,10.93-6.39,7.9-4.27,15.86-8.45,23.84-12.59.62-.32,1.29-.53,1.97-.71.69-.18,1.39-.34,2.06-.54,9.15-3.69,18.3-7.37,27.45-11.06,1.43-.58,2.88-1.12,4.32-1.68.36-.01.73-.02,1.09-.03.77-.26,1.55-.52,2.32-.78,4.99-1.61,9.98-3.21,15.3-4.93-.9-.41-1.4-.65-1.91-.88-12.45,3.74-25.02,7.13-37.32,11.3-16.18,5.49-30.87,14.17-45.78,22.4-18.03,9.94-36.55,19-54.62,28.88-11.26,6.16-21.13,14.16-28.51,24.93-6.15,8.97-7.56,18.31-2.87,28.33.21-3.02.15-6.09.77-9.02.25-1.19,1.95-2.09,3.01-3.09Z"/>
  <path class="r" d="m914.6,250.64c-.25-.38-.49-.77-.74-1.15,4.63.2,9.27.69,13.9.54,6.6-.22,11.87-2.71,15.49-8.85,1.35-2.28,4.81-4.26,7.51-4.56,3.03-.34,4.13,2.85,4.24,5.85.03.83.43,1.65.67,2.47.09.18.17.35.26.53.2.41.4.81.6,1.22.87.85,1.74,1.69,2.61,2.54-3.05-7.18-5.95-14.43-9.22-21.52-1.41-3.05-3.57-5.76-5.39-8.62-8.8-2.7-17.72-1.41-26.63-.88-3.45.21-6.92.03-10.38.02.57,6.9,1.13,13.8,1.7,20.7.28,5.45.55,10.89.83,16.34l4.55-4.62Z"/>
  <path class="r" d="m956.53,246.67c-.2-.41-.4-.81-.6-1.22.2.41.4.81.6,1.22,0,0,0,0,0,0Z"/>
  <path class="n" d="m917.91,218.2c8.91-.53,17.83-1.82,26.63.88-.5-1.46-.72-3.09-1.53-4.35-4.03-6.2-5.72-12.95-5.31-20.28-.11-.4-.23-.79-.34-1.19-5.45-2.6-2.47-8.67-5.28-13.24-.54,1.69-1.16,2.72-1.14,3.75.06,4.45-1.03,5.77-5.32,6.05-6.36.41-13.19-1.75-18.69,3.4-1.07,1-2.77,1.9-3.01,3.09-.61,2.93-.55,6-.77,9.02,1.46,4.29,2.93,8.59,4.39,12.88,3.46,0,6.93.18,10.38-.02Z"/>
  <path class="q" d="m1131.3,271.62c-1.13-.6-2.24-1.23-3.25-1.94-.4-.29-.79-.59-1.16-.9-.18-.16-.36-.32-.54-.49-1.39-1.35-2.42-3.02-2.8-5.27l-.64-.65c-.36-.36-.71-.73-1.07-1.09-.58-.28-1.15-.57-1.73-.85-6.89-3.29-13.58-.11-20.35.6-1.84.19-3.73-.02-5.53.31-2.27.42-4.44,1.55-6.7,1.77-3.56.34-7.17.19-10.76.21-.84,0-1.69-.14-2.53-.22,1.8,3.7,3.6,7.4,5.4,11.11,4.45,2.08,8.9,3.38,13.93,1.83,2.53-.78,5.34-.58,8-1,4.99-.79,10.2-.12,14.89-.66,2.38-.28,4.7-.44,6.98-.46,3.8-.04,7.52.31,11.31,1.14.29,0,.57,0,.86,0-.01-.28-.02-.56-.01-.84,0,0,0,0,0,0-.64-.65-1.29-1.3-1.93-1.95-.21-.22-.43-.43-.64-.65-.57,0-1.15,0-1.72,0Z"/>
  <path class="q" d="m1135.6,274.21h0c-.64-.65-1.29-1.3-1.93-1.95.64.65,1.29,1.3,1.93,1.95,0,0,0,0,0,0Z"/>
  <path class="c" d="m1095.34,250.21c-.2.31-.73.58-1.11.58-7.7-.06-15.42.13-23.08-.43-2.35-.17-4.55-2.42-6.82-3.71,3.3,5.49,6.61,10.97,9.91,16.46.84.08,1.69.22,2.53.22,3.59-.02,7.2.13,10.76-.21,2.27-.22,4.44-1.35,6.7-1.77,1.8-.33,3.7-.12,5.53-.31,6.77-.72,13.46-3.9,20.35-.6,0-.29,0-.58.01-.88-1.45-2.57-2.9-5.13-4.35-7.69,0,0,0,0,0,0l-2.34-1.61c-.07-.05-.14-.1-.21-.14-1.43-.29-2.87-.57-4.3-.86-.42-.07-.96,0-1.24-.25-4.55-3.9-8.73-4.46-12.34,1.22Z"/>
  <path class="c" d="m1115.78,251.85s0,0,0,0c-.78-.54-1.56-1.08-2.34-1.61l2.34,1.61s0,0,0,0Z"/>
  <path class="i" d="m957.18,225.55c-6.33-10.47-12.98-20.75-19.49-31.1-.41,7.33,1.28,14.09,5.31,20.28.81,1.25,1.04,2.89,1.53,4.35,1.82,2.86,3.99,5.57,5.39,8.62,3.27,7.08,6.17,14.33,9.22,21.52,1.97,2.86,3.95,5.73,5.92,8.59,1.18-11.68-1.91-22.38-7.88-32.25Z"/>
  <path class="e" d="m1039.16,106.35c-1.9.87-3.73,1.86-5.6,2.8-14.42,11.15-26.16,24.63-34.91,40.64-3,5.48-4.77,11.29-3.39,17.66.4-1.9.52-3.91,1.24-5.68,3.99-9.78,9.02-19.07,15.84-27.11,5.4-6.36,11.72-11.96,17.87-17.64.75-.7,3.07-.12,4.45.42.86.34,1.31,1.72,1.94,2.64,6.57-5.74,13.14-11.49,19.71-17.23l-4.67-2.09c-4.16,1.86-8.34,3.69-12.48,5.58Z"/>
  <path class="p" d="m1160.55,308.67c.29.9.46,1.87.75,2.77.17.54.39,1.05.69,1.51,1.95,2.97,4.2,5.75,6.32,8.61.29.57.59,1.14.88,1.71.57.86,1.14,1.73,1.71,2.59.44.86.85,1.73,1.31,2.56,2.72,4.88,5.46,9.75,8.2,14.62h0c1.43,2.02,2.87,4.03,4.3,6.04,2.75,4.42,5.63,8.76,8.19,13.29,2.22,3.92,4.11,8.03,6.18,12.03,1.09.16,2.17.32,3.26.48-8.23-14.45-16.44-28.91-24.78-43.3-3.26-5.63-7.24-10.84-10.75-16.34-.71-1.11-.76-2.65-1.11-3.99,0,0,0,0,0,0,0,0,0,0,0,0-1.42-.88-2.84-1.75-4.26-2.63-.3.01-.6.03-.9.04Z"/>
  <polygon class="p" points="1165.7 311.24 1165.7 311.24 1165.7 311.24 1165.7 311.24"/>
  <path class="r" d="m1071.15,250.35c7.66.56,15.38.37,23.08.43.38,0,.91-.27,1.11-.58,3.61-5.69,7.79-5.12,12.34-1.22.28.24.82.17,1.24.25-2.38-5.89-8.37-7.24-13.04-10.19-2.6-1.64-5.33-1.24-7.91.77-1.35,1.05-3.17,1.72-4.87,2.04-3.41.64-6.88,1.11-10.34,1.28-2.37.11-4.83-.16-7.13-.73-2.1-.52-4.05-1.66-6.07-2.53,1.59,2.25,3.18,4.51,4.76,6.76,2.27,1.3,4.47,3.54,6.82,3.71Z"/>
  <path class="n" d="m1166.82,315.23c3.5,5.5,7.49,10.71,10.75,16.34,8.34,14.39,16.55,28.85,24.78,43.3.93.14,1.86.27,2.78.41-3.61-6.56-7.24-13.1-10.96-19.6-6.07-10.61-12.73-20.87-19.28-31.2-2.87-4.53-6.12-8.84-9.19-13.24.35,1.34.4,2.88,1.11,3.99Z"/>
  <path class="n" d="m1174.89,324.49c-2.87-4.53-6.12-8.84-9.19-13.24,0,0,0,0,0,0,3.07,4.41,6.32,8.71,9.19,13.24Z"/>
  <path class="n" d="m1058.84,95.3c.04.51.08,1.02.12,1.53.84-.14,1.68-.38,2.52-.5.5-.08,1-.11,1.49-.06.64.07,1.25.44,1.86.84.24.16.48.33.73.48.12.08.24.15.37.22h0,0c7.09-2.62,14.07-5.66,21.3-7.78,13.74-4.04,27.63-7.56,41.46-11.29-.27-.49-.54-.98-.81-1.47-4.5,1.08-8.98,2.24-13.5,3.22-14.04,3.04-28.09,6.02-42.14,9.02.5.23,1.01.46,1.91.88-5.32,1.71-10.31,3.32-15.3,4.93Z"/>
  <path class="s" d="m1108.81,364.01c-1.25-4.33-.96-7.66,3.51-9.72h0s0,0,0,0c-1.99-.02-4.1.3-5.6-.63-.45-.28-.85-.67-1.17-1.21-.32-.55-.57-1.25-.73-2.14-.69-3.97-1.74-7.88-2.87-11.75-.35-1.19-1.49-2.15-2.26-3.22,2.13,9.76,4.34,19.5,6.41,29.26.98.06,1.95.13,2.93.2-.07-.26-.14-.53-.21-.79Z"/>
  <path class="s" d="m1106.72,353.66c1.5.93,3.61.61,5.6.63,0,0,0,0,0,0-1.99-.02-4.1.3-5.6-.63Z"/>
  <path class="s" d="m1105.55,352.45c.32.55.72.94,1.17,1.21-.45-.28-.85-.67-1.17-1.21Z"/>
  <path class="j" d="m1023.63,110.49c0-.27.01-.54.02-.82,0-.27.01-.54.02-.82-.68.2-1.38.36-2.07.54-.69.18-1.36.39-1.97.71-7.98,4.14-15.93,8.32-23.84,12.59-3.71,2.01-7.29,4.25-10.93,6.39.92.47,1.85.95,2.77,1.42,12-6.67,24-13.35,36-20.02Z"/>
  <path class="j" d="m984.86,129.09s0,0,0,0c3.64-2.14,7.22-4.39,10.93-6.39-3.71,2.01-7.29,4.25-10.93,6.39Z"/>
  <path class="n" d="m1023.66,108.86h0c0,.27-.01.54-.02.82,0,.27-.01.54-.02.82,1.57-.62,3.11-1.56,4.73-1.77,1.69-.22,3.46.26,5.2.43,1.86-.94,3.7-1.93,5.6-2.8,4.15-1.9,8.32-3.73,12.48-5.58,1.04-.71,2.07-1.42,3.11-2.14.23-.84.45-1.68.67-2.51h0c-1.44.56-2.88,1.11-4.32,1.68-9.15,3.68-18.3,7.37-27.45,11.06h0Z"/>
  <path class="n" d="m1055.43,96.12h0c-1.44.56-2.88,1.11-4.32,1.68,1.43-.58,2.88-1.12,4.32-1.68h0Z"/>
  <path class="n" d="m1023.66,108.86c0,.27-.01.54-.02.82,0-.27.01-.54.02-.82h0Z"/>
  <path class="q" d="m958.25,147.61c7.45-4.37,14.91-8.75,22.36-13.12-1.87.15-3.75.25-5.61.46-1.28.15-2.54.46-3.81.69-.57.28-1.14.57-1.71.85-.58.29-1.16.58-1.74.87-2.26,1.27-4.52,2.54-6.79,3.82-.9,2.14-1.81,4.29-2.71,6.43Z"/>
  <path class="n" d="m938.71,165.8c1.35-1.75,2.7-3.5,4.05-5.25-1-.75-2-1.5-3.16-2.37,1.06-2.33,2.13-4.7,3.2-7.06-1.52.76-3.04,1.51-4.56,2.27-.2.1-.41.2-.61.3-.04.04-.08.08-.11.12-.53.55-1.07,1.09-1.6,1.64-.59.84-1.18,1.68-1.77,2.53-1.04,6.95-.79,7.38,4.56,7.82Z"/>
  <path class="n" d="m942.8,151.11c-1.52.76-3.04,1.51-4.56,2.27,1.52-.76,3.04-1.51,4.56-2.27,0,0,0,0,0,0Z"/>
  <path class="n" d="m937.52,153.8c-.53.55-1.07,1.09-1.6,1.64-.59.84-1.18,1.68-1.77,2.53.59-.84,1.18-1.68,1.77-2.53.53-.55,1.07-1.09,1.6-1.64Z"/>
  <path class="n" d="m934.15,157.97c-4.67,2.12-6.76,5.22-4.87,9.13,1.13,2.33,4.2,3.71,6.4,5.52,1.01-2.27,2.02-4.55,3.03-6.82-5.35-.45-5.6-.87-4.56-7.82Z"/>
  <path class="h" d="m956.53,246.67c-.18.75-.7,1.62-.49,2.23,1.22,3.57,2.5,7.13,3.98,10.6,1.25,2.95,2.79,5.79,4.2,8.67.28-3.46.56-6.92.84-10.38-1.97-2.86-3.95-5.73-5.92-8.59-.87-.85-1.74-1.69-2.61-2.54h0Z"/>
  <path class="h" d="m956.53,246.67c.87.85,1.74,1.69,2.61,2.54-.87-.85-1.74-1.69-2.61-2.54,0,0,0,0,0,0h0Z"/>
  <path class="n" d="m942.76,160.54c2.13-1.98,4.27-3.96,6.4-5.94-2.87-.01-3.81-.93-1.75-3.49,1.12-1.38,2.06-2.91,3.08-4.37-1.17.66-2.33,1.32-3.5,1.98-1.4.79-2.8,1.59-4.19,2.38,0,0,0,0,0,0-1.07,2.36-2.14,4.73-3.2,7.06,1.16.87,2.16,1.62,3.16,2.37Z"/>
  <path class="n" d="m946.99,148.73c-1.4.79-2.8,1.59-4.19,2.38,0,0,0,0,0,0,0,0,0,0,0,0,1.4-.79,2.8-1.59,4.19-2.38Z"/>
  <path class="d" d="m1064.83,97.11c-.61-.4-1.22-.77-1.86-.84-.49-.05-.98-.02-1.49.06-.84.13-1.68.37-2.52.5-.53.12-1.07.24-1.6.35-.87.48-1.74.96-2.61,1.45h0c-1.04.71-2.07,1.42-3.11,2.14l4.67,2.09c3.2-1.68,6.41-3.37,9.61-5.05-.12-.07-.24-.14-.37-.22-.24-.15-.49-.32-.73-.48Z"/>
  <path class="d" d="m1064.83,97.11c.24.16.48.33.73.48-.24-.15-.49-.32-.73-.48Z"/>
  <path class="d" d="m1065.56,97.59c.12.08.24.15.37.22h0c-.12-.07-.24-.14-.37-.22Z"/>
  <path class="d" d="m1061.48,96.33c-.84.13-1.68.37-2.52.5h0c.84-.14,1.68-.38,2.52-.5Z"/>
  <path class="d" d="m1051.64,100.77c1.04-.71,2.07-1.42,3.11-2.14h0s0,0,0,0c-1.04.71-2.07,1.42-3.11,2.14Z"/>
  <path class="q" d="m947.41,151.12c-2.06,2.55-1.12,3.47,1.75,3.49,1.89-1.46,3.78-2.91,5.66-4.37-1.7-1.25-1.94-2.51-.26-4.05.82-.75,1.36-1.81,2.02-2.74-.63.34-1.26.69-1.9,1.03-1.4.76-2.8,1.52-4.2,2.28-1.02,1.46-1.96,2.99-3.08,4.37Z"/>
  <path class="q" d="m956.59,143.44c-.63.34-1.26.69-1.9,1.03.63-.34,1.26-.69,1.9-1.03,0,0,0,0,0,0Z"/>
  <path class="q" d="m980.6,134.49c2.34-1.33,4.68-2.66,7.02-3.98-.92-.47-1.85-.95-2.77-1.42-4.56,2.19-9.11,4.37-13.67,6.56,1.27-.24,2.53-.54,3.81-.69,1.86-.21,3.74-.31,5.61-.46Z"/>
  <path class="q" d="m956.59,143.44c-.67.92-1.2,1.98-2.02,2.74-1.68,1.55-1.44,2.81.26,4.05,1.14-.87,2.28-1.75,3.42-2.62.9-2.14,1.81-4.29,2.71-6.43-1.46.75-2.91,1.51-4.37,2.26,0,0,0,0,0,0Z"/>
  <path class="q" d="m956.59,143.44c1.46-.75,2.91-1.51,4.37-2.26h0c-1.46.75-2.91,1.51-4.37,2.26,0,0,0,0,0,0,0,0,0,0,0,0Z"/>
  <path class="g" d="m1098.52,330.17c-.08-.26-.15-.52-.23-.78-.07.3.01.56.23.78Z"/>
  <path class="g" d="m1098.29,329.38c.08.26.15.52.23.78-.08-.26-.15-.52-.23-.78h0Z"/>
  <path class="e" d="m1065.47,207.81c-1.39-.64-3.23-.3-4.87-.42-.85.45-1.13-.38-1.68-.95-1.75-1.83-3.57-5.01-5.42-5.05-3.58-.08-1.74,3.66-2.31,5.78-.23.84-.75,2.07-1.35,2.21-.74.17-2.11-.36-2.5-1.01-1.18-1.94-1.77-4.27-3.06-6.12-2.38-3.4-5.09-6.57-7.67-9.84-1.06,6.68,1.76,12.58,3.79,18.62.3.9.87,2.01,1.64,2.42,6.71,3.61,13.41,7.27,20.29,10.53,3.36,1.59,5.45-.25,5.25-4.1-.08-1.5-.41-3-.86-6.18,4.15,2.01,7.4,3.36,10.41,5.11,2.15,1.25,3.99,3.04,5.97,4.58-4.33-6.94-10.23-12.17-17.62-15.6Z"/>
  <path class="n" d="m1153.7,298.29c.86,1.15,1.71,2.3,2.57,3.45.85,1.16,1.71,2.31,2.56,3.47,0,0,0,0,0,0,.87,1.14,1.74,2.28,2.61,3.42h0c1.42.88,2.84,1.75,4.26,2.63-2.59-3.63-5.08-7.34-7.81-10.87-.28-.37-.6-.71-.93-1.04-1-.99-2.18-1.84-3.24-2.79,0,.58-.01,1.16-.02,1.74h0Z"/>
  <path class="n" d="m1153.72,296.55h0c1.05.95,2.23,1.8,3.24,2.79-1-.99-2.18-1.84-3.24-2.79Z"/>
  <path class="n" d="m1156.27,301.74c-.86-1.15-1.71-2.3-2.57-3.45h0s0,0,0,0c.86,1.15,1.71,2.3,2.57,3.45Z"/>
  <path class="n" d="m1161.44,308.63h0c1.42.88,2.84,1.75,4.26,2.63-1.42-.88-2.84-1.75-4.26-2.63h0Z"/>
  <path class="c" d="m1126.35,268.28c.17.17.35.33.54.49.37.32.76.62,1.16.9,1.01.71,2.12,1.34,3.25,1.94,0-.58.01-1.17.02-1.75-1.46-2.27-2.91-4.55-4.37-6.82-1.13-.01-2.27-.02-3.4-.03.38,2.25,1.41,3.92,2.8,5.27Z"/>
  <path class="q" d="m1146.55,291.51c.84.63,1.78,1.17,2.85,1.61,0-.58.01-1.16.02-1.74-.29-.29-.58-.57-.87-.86-.58-.86-1.16-1.71-1.73-2.57,0,0,0,0,0,0-1.73-1.42-3.46-2.84-5.2-4.26.88,3.23,2.42,5.93,4.93,7.82Z"/>
  <path class="n" d="m1141.62,283.69c1.73,1.42,3.46,2.84,5.2,4.26-2-2.58-4-5.17-6-7.75-.31.3-.61.6-.92.9.57.86,1.15,1.73,1.72,2.59Z"/>
  <path class="d" d="m1120.13,259.55c.58-.29,1.15-.58,1.73-.87-.83-.93-1.66-1.86-2.48-2.79-1.2-1.35-2.4-2.69-3.59-4.04,1.45,2.56,2.9,5.13,4.35,7.69Z"/>
  <path class="d" d="m1119.37,255.89c-1.2-1.35-2.4-2.69-3.6-4.04,0,0,0,0,0,0,1.2,1.35,2.4,2.69,3.59,4.04Z"/>
  <path class="d" d="m1121.84,261.27l1.07,1.09c.21.22.43.43.64.65,1.13.01,2.27.02,3.4.03-1.42-1.44-2.84-2.89-4.26-4.33-.28.85-.56,1.71-.84,2.56h0Z"/>
  <path class="d" d="m1122.91,262.36l-1.07-1.09h0s0,0,0,0c.36.36.71.73,1.07,1.09Z"/>
  <path class="r" d="m1137.33,276.78v.86c-.28.29-.56.58-.85.86h0c.31.24.62.47.94.71.83.63,1.65,1.26,2.48,1.88.31-.3.61-.6.92-.9-1.15-1.15-2.3-2.31-3.45-3.46h-.01s-.03.04-.03.04Z"/>
  <path class="r" d="m1137.37,276.74h0c1.15,1.15,2.3,2.31,3.45,3.46-1.15-1.15-2.3-2.31-3.45-3.46Z"/>
  <path class="r" d="m1137.42,279.22c-.31-.24-.62-.47-.94-.71h0s0,0,0,0c.31.24.62.47.94.71Z"/>
  <path class="n" d="m1152.86,295.68c-1.14-1.43-2.29-2.86-3.43-4.3,0,.58-.01,1.16-.02,1.74.85.87,1.7,1.74,2.55,2.61.3-.02.6-.04.9-.05Z"/>
  <path class="r" d="m1120.13,259.55c0,.29,0,.58-.01.88.58.28,1.15.57,1.73.85.28-.85.56-1.71.84-2.56-.28-.01-.55-.02-.83-.03-.58.29-1.15.58-1.73.87Z"/>
  <path class="r" d="m1121.84,261.27c-.58-.28-1.15-.57-1.73-.85.58.28,1.15.57,1.73.85,0,0,0,0,0,0Z"/>
  <path class="q" d="m1151.96,295.73l1.74,2.56c0-.58.01-1.16.02-1.74h0s-.04-.04-.06-.06c-.27-.27-.53-.54-.8-.82-.3.02-.6.04-.9.05Z"/>
  <path class="q" d="m1153.72,296.55h0s-.04-.04-.06-.06c.02.02.04.04.06.06h0Z"/>
  <path class="q" d="m1153.7,298.29l-1.74-2.56c.58.85,1.16,1.71,1.74,2.56h0Z"/>
  <path class="r" d="m1135.61,275.06c0,.29,0,.57,0,.86.28.3.55.59.83.89,0,0,.03-.03.03-.03h0c.29,0,.57,0,.86,0l.03-.03s.01-.01.01-.01c-.59-.84-1.18-1.68-1.77-2.53,0,.28,0,.56.01.84Z"/>
  <path class="r" d="m1137.37,276.74c-.59-.84-1.18-1.68-1.77-2.53h0c.59.84,1.18,1.69,1.77,2.53Z"/>
  <polygon class="r" points="1136.47 276.78 1136.47 276.78 1136.47 276.78 1136.47 276.78"/>
  <path class="r" d="m1137.33,276.78s.01-.01.03-.03l-.03.03Z"/>
  <path class="r" d="m1131.3,271.62c.57,0,1.15,0,1.72,0-.57-.58-1.13-1.17-1.7-1.75,0,.58-.01,1.17-.02,1.75Z"/>
  <path class="c" d="m909.57,271.72c4.33,3.01,8.58,4.31,12.89,0,.15-.15.56-.04.84-.08,7.41-1.21,14.86-2.26,22.23-3.68,7.39-1.42,10.55-7.18,8.92-14.59-.41-1.87-1.3-4.04-.7-5.98.08-.25.19-.5.33-.75.09-.17.2-.33.32-.5.19-.26.41-.51.69-.75.18-.16.37-.31.59-.45-.23-.82-.64-1.64-.67-2.47-.11-2.99-1.21-6.18-4.24-5.85-2.7.3-6.17,2.27-7.51,4.56-3.62,6.14-8.9,8.63-15.49,8.85-4.62.15-9.26-.34-13.9-.54.25.38.49.77.74,1.15l-4.55,4.62c-.87,5.45-1.73,10.9-2.6,16.35.72.02,1.63-.23,2.12.11Z"/>
  <path class="c" d="m954.41,246.13c.19-.26.41-.51.69-.75-.27.24-.49.49-.69.75Z"/>
  <path class="c" d="m954.08,246.63c-.13.24-.25.49-.33.75.08-.25.19-.5.33-.75Z"/>
  <path class="r" d="m839.53,377.4c3.79-4.71,7.52-9.47,11.4-14.11,4.72-5.65,9.56-11.2,14.35-16.79h0c5.45-7.17,10.9-14.34,16.35-21.51,0,0,0,0,0,0,4.88-8.03,9.76-16.07,14.64-24.1,0,0,0,0,0,0,1.09-2.74,2.14-5.5,3.29-8.21,1.41-3.34,2.91-6.64,4.37-9.96-.89,1.02-2.02,1.93-2.64,3.09-2.79,5.27-5.02,10.9-8.23,15.9-8.45,13.17-16.89,26.39-26.14,38.99-7.24,9.86-15.75,18.78-23.57,28.23-.73.89-1.45,1.79-2.14,2.71-1.55,2.04-3.04,4.14-4.54,6.23.95-.15,1.91-.31,2.86-.46Z"/>
  <path class="r" d="m841.21,371.63c-1.55,2.04-3.04,4.14-4.54,6.23,0,0,0,0,0,0,1.5-2.09,2.99-4.18,4.54-6.23Z"/>
  <path class="r" d="m881.63,324.98s0,0,0,0c0,0,0,0,0,0-5.45,7.17-10.9,14.34-16.35,21.51h0s0,0,0,0c5.45-7.17,10.9-14.34,16.35-21.51Z"/>
  <path class="r" d="m896.27,300.88s0,0,0,0c0,0,0,0,0,0-4.88,8.03-9.76,16.07-14.64,24.1h0c4.88-8.03,9.76-16.07,14.64-24.1Z"/>
  <polygon class="r" points="881.63 324.98 881.63 324.98 881.63 324.98 881.63 324.98"/>
  <path class="j" d="m1184.7,349.08c-1.43-2.01-2.87-4.02-4.3-6.03,0,0,0-.01,0-.01-1.81.36-3.6.79-5.43,1.05-3.49.49-6.98,1.11-10.48,1.24-3.25.12-6.65-.97-9.75-.36-4.62.91-9.61,2.02-13.35,4.62-2.66,1.85-4.86,3.1-7.95,2.94-5.4-.27-10.8-.79-16.2-.72-.62,0-1.24.24-1.85.56-.3.16-.61.35-.91.55-.21.14-.42.27-.63.41-.51.34-1.03.69-1.54.96-4.47,2.05-4.76,5.39-3.51,9.72.08.26.14.53.21.79,31.22,2.11,61.26,5.39,90.06,9.59-2.08-4-3.96-8.11-6.18-12.03-2.57-4.52-5.45-8.86-8.19-13.29Z"/>
  <path class="j" d="m1114.49,352.92c-.21.14-.42.27-.63.41.21-.14.42-.28.63-.41Z"/>
  <path class="q" d="m1158.83,305.21c-.85-1.16-1.71-2.31-2.56-3.47-.29.58-.57,1.15-.86,1.73,1.14.58,2.28,1.16,3.42,1.74Z"/>
  <path class="q" d="m1161.44,308.63c-.87-1.14-1.74-2.28-2.61-3.42.57,1.15,1.14,2.31,1.72,3.46.3-.01.6-.03.9-.04Z"/>
  <path class="q" d="m1161.44,308.63h0c-.3.01-.6.03-.9.04.3-.01.6-.03.9-.04Z"/>
  <path class="t" d="m865.3,347.15c0-.22-.02-.44-.02-.66-4.79,5.59-9.63,11.14-14.35,16.79-3.87,4.64-7.61,9.4-11.4,14.11.98-.16,1.96-.32,2.94-.48.15-.11.31-.21.45-.33.26-.22.51-.45.72-.71,1.92-2.28,3.81-4.59,5.69-6.91,1.88-2.32,3.75-4.65,5.63-6.96,3.45-4.88,6.89-9.75,10.34-14.63,0-.08,0-.15,0-.23Z"/>
  <path class="t" d="m865.28,346.49h0c0,.22.02.44.02.66,0-.22-.02-.44-.02-.66Z"/>
  <path class="c" d="m1136.48,277.99v.52c.29-.29.57-.58.85-.86-.29,0-.57,0-.86,0,0,.12,0,.23,0,.35Z"/>
  <path class="c" d="m1136.48,278.5s0,0,0,0v-.52c0,.17,0,.35,0,.52Z"/>
  <path class="c" d="m1134.74,275.91c.29,0,.58,0,.87,0,0-.29,0-.57,0-.86-.29,0-.57,0-.86,0,0,.29,0,.57-.01.85Z"/>
  <path class="c" d="m1134.74,275.91h0c0-.28.01-.57.01-.85,0,.29,0,.57-.01.85Z"/>
  <path class="c" d="m1136.44,276.81c-.28-.3-.55-.59-.83-.89,0,.29,0,.58.01.87.27.01.54.02.82.02Z"/>
  <path class="r" d="m1135.62,276.79c0-.29,0-.58-.01-.87-.29,0-.58,0-.87,0,.29.29.59.59.88.88Z"/>
  <path class="n" d="m1136.47,277.64c.29,0,.57,0,.86,0v-.86c-.29,0-.57,0-.86,0,0,.29,0,.57,0,.86Z"/>
  <path class="n" d="m1137.33,276.78c-.29,0-.57,0-.86,0h0c.29,0,.57,0,.86,0Z"/>
  <path class="s" d="m1055.43,96.12c-.22.84-.45,1.68-.67,2.51.87-.48,1.74-.96,2.61-1.45-.28-.37-.56-.73-.84-1.1-.36.01-.73.02-1.09.03Z"/>
  <path class="s" d="m1056.52,96.09h0c-.36.01-.73.02-1.09.03h0c.36-.01.73-.02,1.09-.03Z"/>
  <path class="s" d="m1055.43,96.12c-.22.84-.45,1.68-.67,2.51,0,0,0,0,0,0,.22-.84.45-1.68.67-2.51h0Z"/>
  <path class="n" d="m1056.52,96.09c.28.37.56.73.84,1.1.53-.12,1.07-.24,1.6-.35h0c-.04-.51-.08-1.02-.12-1.53,0,0,0,0,0,0h0c-.77.26-1.55.52-2.32.78h0Z"/>
  <path class="n" d="m1056.52,96.09c.77-.26,1.55-.52,2.32-.78-.77.26-1.55.52-2.32.78h0s0,0,0,0Z"/>
  <path class="n" d="m1058.96,96.83h0c-.04-.51-.08-1.02-.12-1.53,0,0,0,0,0,0,.04.51.08,1.02.12,1.53Z"/>
  <path class="n" d="m1058.96,96.83c-.53.12-1.07.24-1.6.35.53-.12,1.07-.24,1.6-.35h0s0,0,0,0Z"/>
</svg>